<svg width="261" height="2199" viewBox="0 0 261 2199" fill="none" xmlns="http://www.w3.org/2000/svg">
<path d="M70.8899 0.530593C69.5261 0.315253 68.2459 1.24628 68.0306 2.61009C67.8153 3.97391 68.7463 5.25407 70.1101 5.46941L70.8899 0.530593ZM229 305L226.524 304.653L229 305ZM248.5 1150L246.066 1149.43L248.5 1150ZM5.00001 1514.5L2.51644 1514.21L5.00001 1514.5ZM249 1936L251.369 1936.8C251.394 1936.72 251.415 1936.65 251.433 1936.58L249 1936ZM115.732 2197.77C116.709 2198.74 118.291 2198.74 119.268 2197.77L135.178 2181.86C136.154 2180.88 136.154 2179.3 135.178 2178.32C134.201 2177.35 132.618 2177.35 131.642 2178.32L117.5 2192.46L103.358 2178.32C102.382 2177.35 100.799 2177.35 99.8223 2178.32C98.846 2179.3 98.846 2180.88 99.8223 2181.86L115.732 2197.77ZM75.1725 6.31677C76.5321 6.55744 77.8293 5.65039 78.07 4.29082C78.3107 2.93124 77.4036 1.63399 76.044 1.39331L75.1725 6.31677ZM86.0533 3.36142C84.704 3.0688 83.3729 3.92545 83.0803 5.27479C82.7877 6.62414 83.6443 7.95522 84.9937 8.24784L86.0533 3.36142ZM94.8634 10.6026C96.1993 10.9514 97.5651 10.1511 97.9138 8.81521C98.2626 7.47927 97.4624 6.11355 96.1264 5.76478L94.8634 10.6026ZM106.015 8.58011C104.695 8.17221 103.295 8.91088 102.888 10.23C102.48 11.5491 103.218 12.949 104.537 13.3569L106.015 8.58011ZM114.02 16.5347C115.319 17.0046 116.752 16.3331 117.222 15.0349C117.692 13.7366 117.02 12.3032 115.722 11.8332L114.02 16.5347ZM125.357 15.5986C124.084 15.063 122.618 15.6605 122.083 16.9331C121.547 18.2057 122.145 19.6715 123.417 20.2071L125.357 15.5986ZM132.581 24.3558C133.823 24.9593 135.319 24.4419 135.922 23.2001C136.526 21.9583 136.008 20.4623 134.766 19.8588L132.581 24.3558ZM143.907 24.6242C142.701 23.9511 141.178 24.3827 140.505 25.5883C139.832 26.7938 140.264 28.3167 141.469 28.9898L143.907 24.6242ZM150.058 34.123C151.221 34.8665 152.767 34.526 153.511 33.3625C154.254 32.1991 153.914 30.6532 152.75 29.9098L150.058 34.123ZM161.273 35.7309C160.157 34.9173 158.593 35.1619 157.78 36.2774C156.966 37.3929 157.211 38.9568 158.326 39.7705L161.273 35.7309ZM166.244 45.9381C167.306 46.8208 168.882 46.6756 169.765 45.6139C170.647 44.5522 170.502 42.9759 169.44 42.0933L166.244 45.9381ZM177.178 48.9564C176.175 48.0075 174.592 48.0513 173.643 49.0542C172.694 50.0572 172.738 51.6395 173.741 52.5884L177.178 48.9564ZM180.791 59.7017C181.731 60.7131 183.313 60.771 184.324 59.831C185.336 58.891 185.394 57.3092 184.454 56.2978L180.791 59.7017ZM191.243 64.0866C190.369 63.0175 188.794 62.8593 187.725 63.7331C186.656 64.6069 186.498 66.1818 187.372 67.2509L191.243 64.0866ZM193.467 75.2021C194.272 76.3234 195.834 76.5793 196.956 75.7736C198.077 74.968 198.333 73.4059 197.527 72.2846L193.467 75.2021ZM203.296 80.8496C202.559 79.6818 201.015 79.3323 199.847 80.069C198.68 80.8056 198.33 82.3495 199.067 83.5173L203.296 80.8496ZM204.171 92.1559C204.839 93.3642 206.36 93.8023 207.568 93.1343C208.777 92.4663 209.215 90.9452 208.547 89.7368L204.171 92.1559ZM213.286 98.9015C212.686 97.6582 211.191 97.1373 209.948 97.7379C208.704 98.3385 208.184 99.8333 208.784 101.076L213.286 98.9015ZM212.917 110.236C213.452 111.508 214.918 112.106 216.19 111.571C217.463 111.035 218.061 109.57 217.525 108.297L212.917 110.236ZM221.284 117.886C220.811 116.589 219.376 115.92 218.079 116.393C216.782 116.866 216.113 118.3 216.586 119.598L221.284 117.886ZM219.812 129.13C220.225 130.448 221.628 131.181 222.946 130.768C224.263 130.355 224.996 128.952 224.583 127.634L219.812 129.13ZM227.448 137.513C227.091 136.179 225.721 135.387 224.387 135.743C223.053 136.1 222.261 137.47 222.618 138.804L227.448 137.513ZM225.026 148.594C225.33 149.941 226.667 150.786 228.014 150.483C229.361 150.179 230.207 148.842 229.904 147.495L225.026 148.594ZM231.975 157.558C231.721 156.2 230.415 155.306 229.058 155.56C227.701 155.813 226.806 157.119 227.06 158.476L231.975 157.558ZM228.742 168.432C228.949 169.797 230.224 170.736 231.589 170.529C232.954 170.322 233.893 169.048 233.686 167.683L228.742 168.432ZM235.061 177.853C234.897 176.482 233.653 175.503 232.282 175.666C230.911 175.829 229.932 177.073 230.096 178.444L235.061 177.853ZM231.141 188.494C231.263 189.869 232.478 190.885 233.853 190.762C235.228 190.639 236.244 189.425 236.121 188.05L231.141 188.494ZM236.889 198.27C236.804 196.892 235.618 195.844 234.24 195.928C232.862 196.013 231.814 197.199 231.898 198.577L236.889 198.27ZM232.387 208.683C232.436 210.062 233.594 211.141 234.974 211.092C236.354 211.043 237.433 209.885 237.384 208.505L232.387 208.683ZM237.624 218.745C237.608 217.364 236.476 216.258 235.095 216.274C233.714 216.29 232.608 217.422 232.624 218.802L237.624 218.745ZM232.626 228.928C232.611 230.309 233.718 231.44 235.099 231.455C236.48 231.47 237.611 230.363 237.626 228.982L232.626 228.928ZM237.406 239.212C237.45 237.832 236.367 236.678 234.987 236.634C233.607 236.59 232.453 237.673 232.409 239.053L237.406 239.212ZM231.986 249.171C231.914 250.55 232.975 251.726 234.353 251.797C235.732 251.868 236.908 250.808 236.979 249.429L231.986 249.171ZM236.357 259.638C236.454 258.26 235.415 257.066 234.038 256.969C232.661 256.873 231.466 257.911 231.369 259.288L236.357 259.638ZM230.572 269.401C230.452 270.776 231.47 271.989 232.845 272.109C234.221 272.229 235.433 271.212 235.553 269.836L230.572 269.401ZM234.579 280.017C234.722 278.644 233.724 277.415 232.351 277.272C230.977 277.13 229.749 278.128 229.606 279.501L234.579 280.017ZM228.481 289.586C228.318 290.957 229.297 292.201 230.668 292.365C232.039 292.528 233.283 291.549 233.446 290.178L228.481 289.586ZM232.165 300.318C232.347 298.949 231.386 297.691 230.018 297.509C228.649 297.326 227.391 298.287 227.209 299.656L232.165 300.318ZM225.793 309.627C225.582 310.991 226.518 312.268 227.883 312.478C229.248 312.688 230.524 311.752 230.734 310.388L225.793 309.627ZM229.098 320.132C229.345 318.774 228.445 317.472 227.087 317.224C225.729 316.976 224.427 317.877 224.179 319.235L229.098 320.132ZM222.273 328.869C221.984 330.219 222.845 331.548 224.195 331.836C225.545 332.125 226.874 331.265 227.163 329.914L222.273 328.869ZM224.963 339.457C225.295 338.116 224.478 336.761 223.137 336.429C221.797 336.096 220.442 336.914 220.109 338.254L224.963 339.457ZM217.564 347.797C217.184 349.125 217.952 350.509 219.279 350.889C220.606 351.269 221.99 350.501 222.371 349.174L217.564 347.797ZM219.463 358.648C219.893 357.336 219.179 355.924 217.867 355.493C216.555 355.063 215.143 355.777 214.712 357.089L219.463 358.648ZM211.508 366.222C211.024 367.515 211.68 368.956 212.973 369.44C214.266 369.924 215.707 369.268 216.191 367.975L211.508 366.222ZM212.473 377.284C213.013 376.013 212.422 374.545 211.151 374.005C209.881 373.464 208.413 374.056 207.872 375.326L212.473 377.284ZM203.86 384.186C203.262 385.43 203.785 386.924 205.029 387.523C206.274 388.121 207.767 387.598 208.366 386.354L203.86 384.186ZM203.851 395.194C204.509 393.98 204.057 392.463 202.843 391.805C201.629 391.148 200.111 391.6 199.454 392.814L203.851 395.194ZM194.633 401.227C193.918 402.408 194.295 403.945 195.476 404.661C196.657 405.376 198.194 404.999 198.91 403.818L194.633 401.227ZM193.524 412.239C194.296 411.095 193.993 409.541 192.848 408.769C191.703 407.997 190.15 408.3 189.378 409.445L193.524 412.239ZM183.748 417.388C182.924 418.496 183.153 420.062 184.261 420.886C185.369 421.71 186.935 421.481 187.759 420.373L183.748 417.388ZM181.645 428.224C182.516 427.153 182.354 425.578 181.283 424.707C180.212 423.835 178.638 423.997 177.766 425.068L181.645 428.224ZM171.469 432.502C170.557 433.539 170.658 435.119 171.695 436.031C172.731 436.943 174.311 436.842 175.223 435.805L171.469 432.502ZM168.545 443.142C169.49 442.136 169.441 440.554 168.434 439.609C167.428 438.663 165.846 438.713 164.9 439.719L168.545 443.142ZM158.112 446.758C157.142 447.74 157.152 449.323 158.134 450.293C159.117 451.264 160.699 451.254 161.67 450.272L158.112 446.758ZM154.659 457.241C155.645 456.275 155.662 454.692 154.697 453.706C153.731 452.719 152.148 452.702 151.161 453.667L154.659 457.241ZM144.107 460.505C143.112 461.463 143.082 463.046 144.04 464.04C144.997 465.035 146.58 465.065 147.575 464.107L144.107 460.505ZM140.481 470.933C141.475 469.975 141.503 468.392 140.545 467.398C139.586 466.405 138.003 466.376 137.01 467.335L140.481 470.933ZM129.933 474.221C128.949 475.19 128.937 476.773 129.906 477.757C130.874 478.741 132.457 478.753 133.441 477.784L129.933 474.221ZM126.52 484.72C127.485 483.732 127.467 482.15 126.48 481.184C125.493 480.219 123.91 480.237 122.945 481.224L126.52 484.72ZM116.108 488.4C115.17 489.413 115.231 490.995 116.244 491.933C117.258 492.871 118.839 492.81 119.777 491.797L116.108 488.4ZM113.272 499.064C114.175 498.019 114.059 496.44 113.014 495.538C111.969 494.635 110.39 494.751 109.488 495.796L113.272 499.064ZM103.144 503.446C102.284 504.527 102.464 506.1 103.545 506.959C104.626 507.818 106.199 507.638 107.058 506.557L103.144 503.446ZM101.181 514.302C101.99 513.183 101.739 511.62 100.62 510.811C99.5012 510.002 97.9384 510.253 97.1292 511.372L101.181 514.302ZM91.488 519.581C90.7341 520.738 91.0606 522.287 92.2173 523.04C93.374 523.794 94.9228 523.468 95.6768 522.311L91.488 519.581ZM90.5698 530.591C91.2649 529.398 90.8612 527.868 89.6682 527.173C88.4752 526.478 86.9446 526.881 86.2496 528.074L90.5698 530.591ZM81.4292 536.849C80.7951 538.076 81.2752 539.584 82.5017 540.218C83.7281 540.852 85.2364 540.372 85.8706 539.146L81.4292 536.849ZM81.636 547.852C82.2095 546.596 81.6564 545.113 80.4004 544.54C79.1445 543.966 77.6614 544.519 77.0878 545.775L81.636 547.852ZM73.1804 554.895C72.6663 556.176 73.2882 557.632 74.5697 558.146C75.8511 558.66 77.3067 558.038 77.8208 556.757L73.1804 554.895ZM74.3946 565.885C74.8511 564.582 74.165 563.156 72.8619 562.699C71.5589 562.243 70.1324 562.929 69.6759 564.232L74.3946 565.885ZM66.5658 573.748C66.164 575.069 66.9092 576.465 68.2302 576.867C69.5512 577.269 70.9477 576.524 71.3494 575.203L66.5658 573.748ZM68.7201 584.489C69.0712 583.154 68.2733 581.787 66.938 581.436C65.6026 581.084 64.2355 581.882 63.8844 583.218L68.7201 584.489ZM61.5235 592.906C61.2202 594.253 62.0663 595.59 63.4133 595.894C64.7603 596.197 66.0981 595.351 66.4014 594.004L61.5235 592.906ZM64.4141 603.567C64.6732 602.211 63.7839 600.901 62.4277 600.642C61.0716 600.383 59.7621 601.272 59.5029 602.628L64.4141 603.567ZM57.7978 612.344C57.5791 613.707 58.507 614.99 59.8702 615.209C61.2335 615.427 62.516 614.499 62.7347 613.136L57.7978 612.344ZM61.3061 622.919C61.4869 621.55 60.5239 620.294 59.1551 620.113C57.7863 619.932 56.53 620.895 56.3492 622.264L61.3061 622.919ZM55.1907 631.972C55.0439 633.345 56.0378 634.577 57.4107 634.724C58.7836 634.871 60.0155 633.877 60.1624 632.504L55.1907 631.972ZM59.2229 642.398C59.3375 641.022 58.315 639.814 56.9391 639.699C55.5632 639.584 54.3548 640.607 54.2401 641.983L59.2229 642.398ZM53.5341 651.694C53.4482 653.072 54.4956 654.259 55.8736 654.345C57.2517 654.431 58.4385 653.383 58.5244 652.005L53.5341 651.694ZM58.0058 661.917C58.0645 660.537 56.9938 659.371 55.6144 659.313C54.2349 659.254 53.069 660.325 53.0103 661.704L58.0058 661.917ZM52.6827 671.466C52.6485 672.847 53.7397 673.993 55.12 674.028C56.5003 674.062 57.6469 672.971 57.6812 671.59L52.6827 671.466ZM57.5203 681.443C57.5315 680.062 56.4213 678.934 55.0406 678.923C53.6599 678.912 52.5316 680.022 52.5205 681.403L57.5203 681.443ZM52.5275 691.602C52.5424 692.983 53.6737 694.09 55.0543 694.075C56.435 694.06 57.5421 692.928 57.5272 691.548L52.5275 691.602ZM57.7421 701.413C57.6966 700.033 56.541 698.951 55.161 698.997C53.7811 699.042 52.6993 700.198 52.7448 701.578L57.7421 701.413ZM53.174 711.259C53.2511 712.637 54.4311 713.692 55.8097 713.615C57.1882 713.538 58.2433 712.358 58.1662 710.979L53.174 711.259ZM58.8458 720.904C58.7339 719.528 57.5275 718.503 56.1514 718.615C54.7752 718.727 53.7503 719.933 53.8622 721.309L58.8458 720.904ZM54.7871 731.106C54.9351 732.479 56.1679 733.472 57.5407 733.324C58.9134 733.176 59.9063 731.943 59.7583 730.57L54.7871 731.106ZM60.939 740.258C60.7526 738.89 59.4924 737.932 58.1243 738.119C56.7563 738.305 55.7984 739.565 55.9848 740.934L60.939 740.258ZM57.4736 750.77C57.7009 752.132 58.9891 753.052 60.351 752.824C61.7129 752.597 62.6327 751.309 62.4055 749.947L57.4736 750.77ZM64.143 759.453C63.8734 758.099 62.5571 757.22 61.2029 757.489C59.8488 757.759 58.9696 759.075 59.2392 760.43L64.143 759.453ZM61.357 770.212C61.672 771.556 63.0171 772.391 64.3614 772.076C65.7057 771.761 66.5401 770.416 66.2252 769.072L61.357 770.212ZM68.5844 778.415C68.2231 777.082 66.8499 776.295 65.5173 776.656C64.1847 777.018 63.3974 778.391 63.7587 779.724L68.5844 778.415ZM66.5599 789.348C66.9704 790.666 68.3719 791.402 69.6902 790.991C71.0084 790.581 71.7443 789.179 71.3337 787.861L66.5599 789.348ZM74.3777 797.022C73.9174 795.721 72.489 795.039 71.1872 795.499C69.8855 795.959 69.2035 797.388 69.6638 798.689L74.3777 797.022ZM73.1841 808.048C73.696 809.33 75.1506 809.955 76.4329 809.443C77.7151 808.931 78.3396 807.476 77.8276 806.194L73.1841 808.048ZM81.6031 815.121C81.0394 813.861 79.5607 813.296 78.3003 813.859C77.0399 814.423 76.475 815.902 77.0387 817.162L81.6031 815.121ZM81.2873 826.157C81.9029 827.393 83.4038 827.896 84.6397 827.28C85.8756 826.665 86.3784 825.164 85.7628 823.928L81.2873 826.157ZM90.2861 832.551C89.6192 831.342 88.0985 830.902 86.8895 831.569C85.6806 832.236 85.2411 833.757 85.908 834.966L90.2861 832.551ZM90.8622 843.521C91.5788 844.701 93.1164 845.077 94.2966 844.36C95.4768 843.644 95.8527 842.106 95.1361 840.926L90.8622 843.521ZM100.385 849.179C99.6199 848.029 98.068 847.717 96.9185 848.482C95.7689 849.247 95.4569 850.799 96.2217 851.948L100.385 849.179ZM101.87 860.082C102.68 861.2 104.243 861.45 105.362 860.64C106.48 859.831 106.73 858.267 105.92 857.149L101.87 860.082ZM111.787 864.931C110.935 863.844 109.364 863.654 108.277 864.506C107.191 865.358 107 866.929 107.852 868.016L111.787 864.931ZM114.123 875.723C115.013 876.778 116.591 876.912 117.646 876.022C118.701 875.131 118.835 873.554 117.945 872.499L114.123 875.723ZM124.339 879.827C123.414 878.801 121.834 878.719 120.808 879.644C119.783 880.568 119.7 882.149 120.625 883.174L124.339 879.827ZM127.381 890.446C128.335 891.444 129.918 891.479 130.915 890.524C131.913 889.57 131.948 887.988 130.994 886.99L127.381 890.446ZM137.844 893.964C136.864 892.991 135.281 892.997 134.309 893.977C133.336 894.957 133.342 896.54 134.321 897.512L137.844 893.964ZM141.404 904.388C142.404 905.34 143.987 905.3 144.938 904.299C145.889 903.299 145.849 901.716 144.849 900.765L141.404 904.388ZM152.014 907.456C150.997 906.522 149.416 906.589 148.482 907.606C147.548 908.623 147.615 910.204 148.632 911.138L152.014 907.456ZM155.948 917.77C156.976 918.691 158.557 918.604 159.478 917.576C160.399 916.548 160.313 914.967 159.284 914.046L155.948 917.77ZM166.615 920.56C165.58 919.646 164 919.744 163.086 920.779C162.172 921.814 162.27 923.394 163.305 924.308L166.615 920.56ZM170.691 930.812C171.727 931.724 173.307 931.623 174.219 930.586C175.131 929.549 175.03 927.97 173.993 927.058L170.691 930.812ZM181.385 933.58C180.352 932.664 178.772 932.759 177.856 933.792C176.94 934.825 177.034 936.405 178.067 937.321L181.385 933.58ZM185.375 943.861C186.398 944.788 187.979 944.709 188.906 943.685C189.832 942.662 189.754 941.081 188.73 940.154L185.375 943.861ZM195.989 946.827C194.981 945.884 193.399 945.936 192.455 946.944C191.512 947.953 191.565 949.535 192.573 950.478L195.989 946.827ZM199.65 957.248C200.636 958.215 202.219 958.199 203.186 957.213C204.152 956.227 204.137 954.645 203.151 953.678L199.65 957.248ZM210.127 960.721C209.171 959.724 207.589 959.692 206.593 960.648C205.596 961.604 205.564 963.187 206.52 964.183L210.127 960.721ZM213.131 971.327C214.049 972.358 215.629 972.45 216.661 971.532C217.692 970.614 217.784 969.034 216.866 968.003L213.131 971.327ZM223.314 975.574C222.443 974.502 220.869 974.34 219.797 975.211C218.726 976.081 218.563 977.656 219.434 978.727L223.314 975.574ZM225.362 986.41C226.177 987.525 227.741 987.769 228.856 986.955C229.971 986.14 230.214 984.576 229.4 983.461L225.362 986.41ZM235.048 991.674C234.299 990.514 232.752 990.181 231.592 990.93C230.432 991.678 230.098 993.226 230.847 994.386L235.048 991.674ZM235.841 1002.68C236.516 1003.88 238.039 1004.31 239.244 1003.64C240.449 1002.96 240.878 1001.44 240.204 1000.23L235.841 1002.68ZM244.804 1009.12C244.211 1007.88 242.719 1007.35 241.472 1007.94C240.226 1008.53 239.696 1010.03 240.29 1011.27L244.804 1009.12ZM244.132 1020.1C244.641 1021.38 246.093 1022.01 247.377 1021.5C248.661 1020.99 249.29 1019.54 248.781 1018.26L244.132 1020.1ZM252.143 1027.67C251.723 1026.35 250.316 1025.63 249.001 1026.05C247.686 1026.47 246.96 1027.88 247.381 1029.19L252.143 1027.67ZM250.038 1038.56C250.371 1039.9 251.727 1040.72 253.067 1040.39C254.407 1040.05 255.223 1038.7 254.89 1037.36L250.038 1038.56ZM256.974 1047.02C256.724 1045.67 255.421 1044.77 254.063 1045.02C252.705 1045.27 251.807 1046.57 252.056 1047.93L256.974 1047.02ZM253.525 1057.51C253.694 1058.88 254.942 1059.85 256.313 1059.68C257.683 1059.51 258.656 1058.27 258.487 1056.9L253.525 1057.51ZM259.442 1066.86C259.347 1065.48 258.154 1064.44 256.776 1064.53C255.399 1064.63 254.359 1065.82 254.454 1067.2L259.442 1066.86ZM254.878 1076.81C254.906 1078.19 256.047 1079.29 257.428 1079.26C258.808 1079.23 259.905 1078.09 259.877 1076.71L254.878 1076.81ZM259.845 1086.82C259.88 1085.44 258.79 1084.29 257.41 1084.25C256.03 1084.22 254.882 1085.31 254.847 1086.69L259.845 1086.82ZM254.407 1096.23C254.317 1097.61 255.36 1098.8 256.738 1098.89C258.116 1098.98 259.306 1097.94 259.397 1096.56L254.407 1096.23ZM258.538 1106.66C258.681 1105.29 257.683 1104.06 256.309 1103.91C254.936 1103.77 253.707 1104.77 253.565 1106.14L258.538 1106.66ZM252.427 1115.6C252.24 1116.97 253.197 1118.23 254.565 1118.41C255.933 1118.6 257.194 1117.64 257.38 1116.28L252.427 1115.6ZM255.859 1126.25C256.087 1124.89 255.169 1123.6 253.808 1123.37C252.446 1123.14 251.157 1124.06 250.928 1125.42L255.859 1126.25ZM249.209 1134.85C248.944 1136.21 249.827 1137.52 251.182 1137.79C252.537 1138.05 253.851 1137.17 254.116 1135.81L249.209 1134.85ZM252.076 1145.57C252.375 1144.22 251.525 1142.89 250.177 1142.59C248.83 1142.29 247.494 1143.14 247.195 1144.49L252.076 1145.57ZM244.876 1154.18C244.52 1155.52 245.314 1156.89 246.648 1157.24C247.982 1157.6 249.352 1156.8 249.707 1155.47L244.876 1154.18ZM246.861 1164.98C247.297 1163.67 246.589 1162.26 245.278 1161.82C243.968 1161.39 242.553 1162.09 242.117 1163.4L246.861 1164.98ZM238.786 1172.47C238.269 1173.75 238.888 1175.2 240.168 1175.72C241.449 1176.24 242.905 1175.62 243.422 1174.34L238.786 1172.47ZM239.393 1183.48C239.989 1182.23 239.463 1180.74 238.218 1180.14C236.973 1179.55 235.48 1180.07 234.883 1181.32L239.393 1183.48ZM230.443 1189.89C229.771 1191.1 230.203 1192.62 231.409 1193.29C232.615 1193.97 234.138 1193.53 234.81 1192.33L230.443 1189.89ZM229.705 1200.87C230.447 1199.71 230.106 1198.16 228.942 1197.42C227.778 1196.68 226.233 1197.02 225.49 1198.18L229.705 1200.87ZM220.06 1206.19C219.253 1207.31 219.508 1208.87 220.629 1209.68C221.749 1210.48 223.312 1210.23 224.118 1209.11L220.06 1206.19ZM218.101 1217.02C218.964 1215.95 218.789 1214.37 217.712 1213.51C216.634 1212.65 215.061 1212.82 214.198 1213.9L218.101 1217.02ZM207.959 1221.33C207.047 1222.36 207.149 1223.94 208.186 1224.85C209.223 1225.77 210.802 1225.66 211.714 1224.63L207.959 1221.33ZM205.016 1231.93C205.969 1230.94 205.932 1229.35 204.932 1228.4C203.933 1227.45 202.351 1227.48 201.398 1228.48L205.016 1231.93ZM194.562 1235.4C193.575 1236.37 193.558 1237.95 194.523 1238.94C195.489 1239.92 197.072 1239.94 198.059 1238.98L194.562 1235.4ZM190.888 1245.79C191.902 1244.85 191.965 1243.27 191.028 1242.25C190.091 1241.24 188.51 1241.18 187.495 1242.11L190.888 1245.79ZM180.241 1248.65C179.205 1249.57 179.105 1251.15 180.018 1252.18C180.931 1253.22 182.511 1253.32 183.547 1252.4L180.241 1248.65ZM176.084 1258.86C177.137 1257.96 177.265 1256.38 176.371 1255.33C175.477 1254.28 173.899 1254.15 172.847 1255.05L176.084 1258.86ZM165.355 1261.32C164.291 1262.2 164.142 1263.78 165.023 1264.84C165.903 1265.91 167.479 1266.06 168.543 1265.18L165.355 1261.32ZM160.939 1271.41C162.01 1270.54 162.171 1268.97 161.3 1267.9C160.428 1266.83 158.853 1266.66 157.783 1267.54L160.939 1271.41ZM150.159 1273.71C149.086 1274.58 148.918 1276.16 149.786 1277.23C150.654 1278.3 152.228 1278.47 153.302 1277.6L150.159 1273.71ZM145.658 1283.78C146.731 1282.91 146.897 1281.34 146.029 1280.26C145.16 1279.19 143.586 1279.02 142.513 1279.89L145.658 1283.78ZM134.891 1286.09C133.821 1286.96 133.663 1288.53 134.536 1289.6C135.41 1290.67 136.985 1290.83 138.054 1289.96L134.891 1286.09ZM130.497 1296.18C131.559 1295.3 131.704 1293.72 130.822 1292.66C129.939 1291.6 128.363 1291.45 127.301 1292.34L130.497 1296.18ZM119.762 1298.67C118.711 1299.57 118.584 1301.15 119.48 1302.2C120.375 1303.25 121.953 1303.38 123.004 1302.48L119.762 1298.67ZM115.596 1308.88C116.634 1307.97 116.736 1306.39 115.824 1305.36C114.913 1304.32 113.333 1304.22 112.296 1305.13L115.596 1308.88ZM104.953 1311.7C103.933 1312.63 103.86 1314.21 104.791 1315.23C105.721 1316.25 107.302 1316.32 108.322 1315.39L104.953 1311.7ZM101.186 1322.04C102.185 1321.09 102.224 1319.51 101.271 1318.51C100.319 1317.51 98.7367 1317.47 97.7369 1318.42L101.186 1322.04ZM90.663 1325.33C89.6868 1326.3 89.6869 1327.88 90.6633 1328.86C91.6397 1329.84 93.2226 1329.84 94.1989 1328.86L90.663 1325.33ZM87.3871 1335.86C88.3366 1334.85 88.2939 1333.27 87.2915 1332.32C86.2892 1331.37 84.7069 1331.42 83.7573 1332.42L87.3871 1335.86ZM77.0745 1339.68C76.1545 1340.71 76.2432 1342.29 77.2727 1343.21C78.3022 1344.13 79.8826 1344.04 80.8027 1343.01L77.0745 1339.68ZM74.4278 1350.37C75.3154 1349.31 75.1776 1347.73 74.12 1346.85C73.0624 1345.96 71.4855 1346.1 70.5979 1347.15L74.4278 1350.37ZM64.3413 1354.86C63.4889 1355.95 63.6783 1357.52 64.7645 1358.37C65.8506 1359.22 67.4222 1359.03 68.2746 1357.95L64.3413 1354.86ZM62.4128 1365.68C63.2279 1364.57 62.9852 1363 61.8707 1362.19C60.7563 1361.37 59.1921 1361.61 58.377 1362.73L62.4128 1365.68ZM52.6766 1370.82C51.901 1371.96 52.1983 1373.51 53.3405 1374.29C54.4828 1375.06 56.0376 1374.77 56.8132 1373.62L52.6766 1370.82ZM51.4713 1381.8C52.2056 1380.63 51.8529 1379.09 50.6835 1378.36C49.5142 1377.62 47.9711 1377.97 47.2369 1379.14L51.4713 1381.8ZM42.1421 1387.59C41.4502 1388.78 41.858 1390.31 43.0528 1391C44.2476 1391.7 45.7771 1391.29 46.469 1390.09L42.1421 1387.59ZM41.749 1398.59C42.3976 1397.37 41.9352 1395.86 40.7162 1395.21C39.4973 1394.56 37.9834 1395.03 37.3349 1396.25L41.749 1398.59ZM32.8213 1405.11C32.2168 1406.35 32.7331 1407.85 33.9745 1408.45C35.2158 1409.06 36.7122 1408.54 37.3166 1407.3L32.8213 1405.11ZM33.2361 1416.06C33.7969 1414.8 33.2287 1413.33 31.967 1412.76C30.7053 1412.2 29.2279 1412.77 28.6671 1414.03L33.2361 1416.06ZM24.7841 1423.19C24.2672 1424.47 24.886 1425.93 26.1664 1426.45C27.4467 1426.97 28.9036 1426.35 29.4205 1425.07L24.7841 1423.19ZM25.9438 1434.11C26.4178 1432.81 25.7508 1431.38 24.454 1430.9C23.1572 1430.43 21.7217 1431.1 21.2477 1432.39L25.9438 1434.11ZM17.9994 1441.75C17.5676 1443.06 18.2807 1444.47 19.5922 1444.91C20.9036 1445.34 22.3168 1444.63 22.7486 1443.31L17.9994 1441.75ZM19.8467 1452.62C20.2373 1451.29 19.4805 1449.9 18.1562 1449.51C16.8319 1449.12 15.4416 1449.88 15.051 1451.2L19.8467 1452.62ZM12.4031 1460.7C12.0521 1462.04 12.8502 1463.4 14.1855 1463.76C15.5209 1464.11 16.8879 1463.31 17.2389 1461.97L12.4031 1460.7ZM14.8897 1471.47C15.2021 1470.13 14.3651 1468.78 13.0202 1468.47C11.6752 1468.16 10.3317 1468.99 10.0194 1470.34L14.8897 1471.47ZM7.92617 1479.95C7.65055 1481.3 8.52388 1482.62 9.87681 1482.9C11.2297 1483.17 12.5499 1482.3 12.8255 1480.95L7.92617 1479.95ZM10.9974 1490.57C11.2375 1489.21 10.3298 1487.91 8.97013 1487.67C7.61044 1487.43 6.31361 1488.34 6.07356 1489.7L10.9974 1490.57ZM4.4849 1499.4C4.27856 1500.77 5.21801 1502.04 6.58322 1502.25C7.94842 1502.45 9.22241 1501.52 9.42875 1500.15L4.4849 1499.4ZM8.08319 1509.83C8.25715 1508.46 7.2878 1507.21 5.9181 1507.04C4.54839 1506.87 3.29699 1507.83 3.12303 1509.2L8.08319 1509.83ZM1.96859 1519.4C1.8365 1520.77 2.84357 1521.99 4.21795 1522.12C5.59233 1522.26 6.81356 1521.25 6.94565 1519.87L1.96859 1519.4ZM6.19068 1529.73C6.26841 1528.36 5.21392 1527.18 3.8354 1527.1C2.45688 1527.02 1.27634 1528.07 1.19861 1529.45L6.19068 1529.73ZM0.848853 1539.38C0.830392 1540.76 1.93461 1541.9 3.3152 1541.92C4.69579 1541.94 5.82994 1540.83 5.84841 1539.45L0.848853 1539.38ZM5.95228 1549.37C5.90378 1547.99 4.74587 1546.91 3.36601 1546.96C1.98615 1547.01 0.906864 1548.17 0.955361 1549.55L5.95228 1549.37ZM1.56212 1559.5C1.68279 1560.87 2.89562 1561.89 4.27105 1561.77C5.64648 1561.65 6.66366 1560.43 6.54299 1559.06L1.56212 1559.5ZM7.68731 1568.85C7.4865 1567.49 6.21632 1566.54 4.85029 1566.74C3.48426 1566.95 2.53967 1568.22 2.74048 1569.58L7.68731 1568.85ZM4.51187 1579.48C4.79823 1580.83 6.12531 1581.7 7.476 1581.41C8.82669 1581.12 9.68951 1579.8 9.40316 1578.45L4.51187 1579.48ZM11.7433 1587.91C11.3661 1586.58 9.98354 1585.81 8.65537 1586.19C7.3272 1586.56 6.55633 1587.95 6.93358 1589.27L11.7433 1587.91ZM10.0564 1598.94C10.5286 1600.23 11.9632 1600.9 13.2607 1600.43C14.5581 1599.96 15.2271 1598.52 14.7548 1597.23L10.0564 1598.94ZM18.3985 1606.19C17.8311 1604.93 16.3507 1604.37 15.092 1604.94C13.8332 1605.51 13.2727 1606.99 13.8401 1608.24L18.3985 1606.19ZM18.3743 1617.36C19.0364 1618.57 20.5553 1619.01 21.7669 1618.35C22.9785 1617.69 23.424 1616.17 22.7619 1614.96L18.3743 1617.36ZM27.7532 1623.32C27.0014 1622.16 25.4532 1621.83 24.2951 1622.59C23.1369 1623.34 22.8076 1624.89 23.5593 1626.04L27.7532 1623.32ZM29.3653 1634.3C30.1997 1635.4 31.7679 1635.62 32.868 1634.79C33.968 1633.95 34.1834 1632.38 33.349 1631.28L29.3653 1634.3ZM39.5297 1638.86C38.6211 1637.82 37.0417 1637.72 36.0021 1638.63C34.9625 1639.54 34.8563 1641.11 35.765 1642.15L39.5297 1638.86ZM42.6496 1649.53C43.6227 1650.51 45.2056 1650.52 46.1851 1649.55C47.1646 1648.57 47.1698 1646.99 46.1968 1646.01L42.6496 1649.53ZM53.3079 1652.76C52.2799 1651.84 50.6993 1651.92 49.7776 1652.95C48.8558 1653.98 48.9419 1655.56 49.9699 1656.48L53.3079 1652.76ZM57.6341 1663C58.7078 1663.87 60.2819 1663.7 61.15 1662.63C62.0181 1661.56 61.8515 1659.98 60.7779 1659.11L57.6341 1663ZM68.5594 1665.12C67.4483 1664.3 65.8831 1664.54 65.0635 1665.65C64.2439 1666.76 64.4801 1668.32 65.5913 1669.14L68.5594 1665.12ZM73.7989 1674.95C74.9402 1675.73 76.4953 1675.44 77.2723 1674.29C78.0492 1673.15 77.7538 1671.6 76.6124 1670.82L73.7989 1674.95ZM84.8454 1676.23C83.6801 1675.49 82.1351 1675.83 81.3945 1677C80.6539 1678.17 80.9982 1679.71 82.1635 1680.45L84.8454 1676.23ZM90.6828 1685.71C91.8667 1686.42 93.4024 1686.03 94.1129 1684.85C94.8233 1683.67 94.4396 1682.13 93.2557 1681.42L90.6828 1685.71ZM101.807 1686.43C100.609 1685.74 99.0809 1686.16 98.3943 1687.36C97.7077 1688.55 98.1221 1690.08 99.3199 1690.77L101.807 1686.43ZM108.008 1695.66C109.216 1696.33 110.737 1695.89 111.407 1694.68C112.076 1693.48 111.639 1691.96 110.431 1691.29L108.008 1695.66ZM119.14 1696.05C117.926 1695.39 116.408 1695.85 115.751 1697.06C115.093 1698.27 115.544 1699.79 116.758 1700.45L119.14 1696.05ZM125.528 1705.17C126.745 1705.82 128.261 1705.36 128.913 1704.15C129.565 1702.93 129.107 1701.41 127.89 1700.76L125.528 1705.17ZM136.66 1705.46C135.444 1704.81 133.928 1705.26 133.276 1706.48C132.623 1707.7 133.08 1709.21 134.297 1709.86L136.66 1705.46ZM143.041 1714.58C144.255 1715.24 145.772 1714.79 146.431 1713.58C147.091 1712.36 146.641 1710.85 145.428 1710.19L143.041 1714.58ZM154.167 1714.99C152.96 1714.32 151.438 1714.75 150.766 1715.96C150.095 1717.16 150.528 1718.68 151.735 1719.36L154.167 1714.99ZM160.363 1724.24C161.559 1724.93 163.088 1724.52 163.778 1723.33C164.468 1722.13 164.058 1720.6 162.863 1719.91L160.363 1724.24ZM171.465 1724.99C170.284 1724.28 168.746 1724.66 168.031 1725.84C167.316 1727.02 167.694 1728.55 168.876 1729.27L171.465 1724.99ZM177.265 1734.5C178.427 1735.24 179.973 1734.9 180.719 1733.74C181.465 1732.58 181.128 1731.03 179.967 1730.29L177.265 1734.5ZM188.323 1735.84C187.186 1735.06 185.629 1735.35 184.845 1736.48C184.062 1737.62 184.349 1739.18 185.486 1739.96L188.323 1735.84ZM193.477 1745.69C194.583 1746.52 196.15 1746.29 196.977 1745.19C197.803 1744.08 197.577 1742.51 196.472 1741.69L193.477 1745.69ZM204.397 1747.89C203.33 1747.01 201.755 1747.17 200.878 1748.24C200.002 1749.3 200.157 1750.88 201.224 1751.76L204.397 1747.89ZM208.649 1758.17C209.669 1759.1 211.25 1759.03 212.18 1758.01C213.111 1756.99 213.038 1755.41 212.017 1754.48L208.649 1758.17ZM219.269 1761.48C218.305 1760.49 216.722 1760.47 215.734 1761.44C214.746 1762.4 214.727 1763.98 215.691 1764.97L219.269 1761.48ZM222.297 1772.19C223.195 1773.24 224.774 1773.36 225.822 1772.46C226.87 1771.56 226.991 1769.98 226.093 1768.93L222.297 1772.19ZM232.399 1776.82C231.575 1775.71 230.009 1775.48 228.901 1776.31C227.793 1777.13 227.562 1778.7 228.386 1779.81L232.399 1776.82ZM233.925 1787.85C234.665 1789.02 236.21 1789.36 237.375 1788.62C238.541 1787.88 238.886 1786.34 238.146 1785.17L233.925 1787.85ZM243.242 1793.91C242.592 1792.69 241.077 1792.23 239.859 1792.88C238.641 1793.53 238.181 1795.05 238.831 1796.26L243.242 1793.91ZM243.08 1805C243.636 1806.27 245.112 1806.84 246.375 1806.28C247.639 1805.73 248.212 1804.25 247.656 1802.99L243.08 1805ZM251.416 1812.48C250.956 1811.18 249.527 1810.5 248.226 1810.96C246.924 1811.42 246.242 1812.85 246.702 1814.15L251.416 1812.48ZM249.598 1823.36C249.966 1824.69 251.343 1825.47 252.673 1825.11C254.004 1824.74 254.785 1823.36 254.417 1822.03L249.598 1823.36ZM256.783 1831.89C256.505 1830.53 255.184 1829.66 253.831 1829.94C252.479 1830.22 251.607 1831.54 251.885 1832.89L256.783 1831.89ZM253.545 1842.52C253.738 1843.88 255.003 1844.84 256.37 1844.64C257.737 1844.45 258.689 1843.19 258.496 1841.82L253.545 1842.52ZM259.612 1851.81C259.497 1850.43 258.289 1849.41 256.913 1849.52C255.537 1849.64 254.515 1850.85 254.629 1852.22L259.612 1851.81ZM255.187 1862.05C255.229 1863.43 256.383 1864.52 257.763 1864.47C259.143 1864.43 260.227 1863.28 260.184 1861.9L255.187 1862.05ZM260.255 1871.9C260.277 1870.52 259.176 1869.38 257.795 1869.36C256.415 1869.34 255.277 1870.44 255.255 1871.82L260.255 1871.9ZM254.882 1881.66C254.801 1883.04 255.852 1884.23 257.23 1884.31C258.609 1884.39 259.792 1883.34 259.873 1881.96L254.882 1881.66ZM259.083 1891.98C259.218 1890.61 258.213 1889.38 256.839 1889.25C255.465 1889.11 254.242 1890.12 254.107 1891.49L259.083 1891.98ZM252.982 1901.19C252.8 1902.56 253.761 1903.82 255.13 1904C256.499 1904.19 257.756 1903.22 257.938 1901.86L252.982 1901.19ZM256.416 1911.99C256.643 1910.63 255.723 1909.34 254.361 1909.12C252.999 1908.89 251.711 1909.81 251.484 1911.17L256.416 1911.99ZM249.771 1920.63C249.506 1921.98 250.39 1923.29 251.745 1923.56C253.1 1923.82 254.413 1922.94 254.678 1921.59L249.771 1920.63ZM252.601 1931.5C252.902 1930.15 252.054 1928.81 250.706 1928.51C249.358 1928.21 248.022 1929.06 247.721 1930.41L252.601 1931.5ZM244.953 1940.08C244.495 1941.38 245.179 1942.81 246.482 1943.27C247.784 1943.73 249.211 1943.04 249.669 1941.74L244.953 1940.08ZM246.199 1951.18C246.694 1949.9 246.05 1948.45 244.761 1947.95C243.472 1947.46 242.026 1948.1 241.531 1949.39L246.199 1951.18ZM237.761 1958.76C237.225 1960.04 237.822 1961.5 239.094 1962.04C240.367 1962.58 241.833 1961.98 242.369 1960.71L237.761 1958.76ZM238.229 1970.06C238.811 1968.81 238.268 1967.32 237.016 1966.74C235.764 1966.16 234.277 1966.7 233.695 1967.95L238.229 1970.06ZM229.303 1976.93C228.671 1978.16 229.153 1979.67 230.381 1980.3C231.608 1980.93 233.116 1980.45 233.748 1979.22L229.303 1976.93ZM228.878 1988.18C229.565 1986.99 229.151 1985.46 227.953 1984.77C226.756 1984.09 225.228 1984.5 224.541 1985.7L228.878 1988.18ZM219.369 1994.22C218.623 1995.38 218.96 1996.93 220.122 1997.67C221.284 1998.42 222.83 1998.08 223.576 1996.92L219.369 1994.22ZM217.811 2005.39C218.619 2004.27 218.368 2002.7 217.249 2001.9C216.13 2001.09 214.567 2001.34 213.758 2002.46L217.811 2005.39ZM207.693 2010.36C206.82 2011.43 206.98 2013 208.05 2013.88C209.12 2014.75 210.695 2014.59 211.568 2013.52L207.693 2010.36ZM204.86 2021.26C205.795 2020.25 205.728 2018.66 204.712 2017.73C203.696 2016.79 202.114 2016.86 201.18 2017.88L204.86 2021.26ZM194.25 2024.99C193.259 2025.95 193.236 2027.54 194.198 2028.53C195.16 2029.52 196.743 2029.54 197.733 2028.58L194.25 2024.99ZM190.211 2035.53C191.247 2034.61 191.346 2033.03 190.433 2032C189.521 2030.96 187.941 2030.86 186.905 2031.77L190.211 2035.53ZM179.267 2038.27C178.201 2039.14 178.05 2040.72 178.928 2041.79C179.807 2042.85 181.382 2043 182.448 2042.12L179.267 2038.27ZM174.592 2048.51C175.666 2047.64 175.834 2046.06 174.966 2044.99C174.099 2043.92 172.525 2043.75 171.45 2044.62L174.592 2048.51ZM163.593 2051.05C162.535 2051.94 162.397 2053.51 163.284 2054.57C164.171 2055.63 165.748 2055.77 166.806 2054.88L163.593 2051.05ZM159.311 2061.46C160.323 2060.52 160.382 2058.94 159.442 2057.92C158.503 2056.91 156.921 2056.85 155.909 2057.79L159.311 2061.46ZM148.63 2065.08C147.696 2066.1 147.764 2067.68 148.781 2068.62C149.798 2069.55 151.38 2069.48 152.313 2068.46L148.63 2065.08ZM146.02 2076.03C146.848 2074.92 146.624 2073.35 145.52 2072.53C144.415 2071.7 142.848 2071.92 142.02 2073.03L146.02 2076.03ZM136.246 2081.63C135.538 2082.82 135.926 2084.35 137.111 2085.06C138.296 2085.77 139.831 2085.38 140.539 2084.2L136.246 2081.63ZM135.914 2092.91C136.501 2091.66 135.964 2090.18 134.714 2089.59C133.465 2089 131.976 2089.54 131.389 2090.79L135.914 2092.91ZM127.436 2100.27C126.959 2101.57 127.622 2103 128.917 2103.48C130.213 2103.96 131.65 2103.29 132.128 2102L127.436 2100.27ZM129.052 2111.41C129.435 2110.09 128.669 2108.7 127.343 2108.32C126.016 2107.93 124.631 2108.7 124.248 2110.03L129.052 2111.41ZM121.712 2119.95C121.409 2121.3 122.255 2122.63 123.602 2122.94C124.949 2123.24 126.287 2122.4 126.59 2121.05L121.712 2119.95ZM124.645 2130.84C124.882 2129.48 123.971 2128.18 122.611 2127.95C121.251 2127.71 119.956 2128.62 119.719 2129.98L124.645 2130.84ZM118.172 2140.09C117.99 2141.46 118.952 2142.72 120.321 2142.9C121.69 2143.08 122.947 2142.12 123.129 2140.75L118.172 2140.09ZM121.971 2150.8C122.106 2149.43 121.102 2148.2 119.728 2148.07C118.354 2147.93 117.13 2148.94 116.995 2150.31L121.971 2150.8ZM116.15 2160.34C116.053 2161.72 117.09 2162.92 118.468 2163.01C119.845 2163.11 121.04 2162.07 121.137 2160.7L116.15 2160.34ZM120.555 2170.68C120.62 2169.3 119.554 2168.13 118.175 2168.06C116.795 2168 115.625 2169.07 115.561 2170.45L120.555 2170.68ZM115.191 2180.71C115.155 2182.09 116.245 2183.24 117.626 2183.27C119.006 2183.31 120.154 2182.22 120.189 2180.84L115.191 2180.71ZM120.021 2190.81C120.033 2189.43 118.923 2188.3 117.542 2188.29C116.161 2188.27 115.033 2189.38 115.021 2190.76L120.021 2190.81ZM70.1101 5.46941C71.8146 5.73854 73.502 6.02105 75.1725 6.31677L76.044 1.39331C74.3427 1.09214 72.6247 0.804509 70.8899 0.530593L70.1101 5.46941ZM84.9937 8.24784C88.3561 8.97702 91.6456 9.76254 94.8634 10.6026L96.1264 5.76478C92.8398 4.90675 89.4826 4.10509 86.0533 3.36142L84.9937 8.24784ZM104.537 13.3569C107.776 14.3583 110.936 15.4182 114.02 16.5347L115.722 11.8332C112.562 10.6894 109.327 9.60438 106.015 8.58011L104.537 13.3569ZM123.417 20.2071C126.556 21.5282 129.61 22.9119 132.581 24.3558L134.766 19.8588C131.714 18.3751 128.578 16.9542 125.357 15.5986L123.417 20.2071ZM141.469 28.9898C144.421 30.6379 147.283 32.3499 150.058 34.123L152.75 29.9098C149.891 28.0829 146.944 26.3202 143.907 24.6242L141.469 28.9898ZM158.326 39.7705C161.058 41.7629 163.696 43.8199 166.244 45.9381L169.44 42.0933C166.811 39.9075 164.089 37.7856 161.273 35.7309L158.326 39.7705ZM173.741 52.5884C176.183 54.8987 178.532 57.271 180.791 59.7017L184.454 56.2978C182.122 53.7893 179.698 51.3409 177.178 48.9564L173.741 52.5884ZM187.372 67.2509C189.492 69.8451 191.523 72.4968 193.467 75.2021L197.527 72.2846C195.524 69.4965 193.43 66.7625 191.243 64.0866L187.372 67.2509ZM199.067 83.5173C200.852 86.3471 202.552 89.2279 204.171 92.1559L208.547 89.7368C206.883 86.7266 205.133 83.7628 203.296 80.8496L199.067 83.5173ZM208.784 101.076C210.239 104.088 211.615 107.142 212.917 110.236L217.525 108.297C216.192 105.126 214.78 101.993 213.286 98.9015L208.784 101.076ZM216.586 119.598C217.731 122.741 218.806 125.92 219.812 129.13L224.583 127.634C223.555 124.354 222.456 121.103 221.284 117.886L216.586 119.598ZM222.618 138.804C223.483 142.041 224.285 145.306 225.026 148.594L229.904 147.495C229.149 144.145 228.331 140.816 227.448 137.513L222.618 138.804ZM227.06 158.476C227.677 161.777 228.237 165.097 228.742 168.432L233.686 167.683C233.172 164.293 232.603 160.916 231.975 157.558L227.06 158.476ZM230.096 178.444C230.494 181.783 230.841 185.135 231.141 188.494L236.121 188.05C235.817 184.643 235.465 181.243 235.061 177.853L230.096 178.444ZM231.898 198.577C232.105 201.942 232.267 205.312 232.387 208.683L237.384 208.505C237.262 205.092 237.098 201.68 236.889 198.27L231.898 198.577ZM232.624 218.802C232.663 222.181 232.663 225.558 232.626 228.928L237.626 228.982C237.663 225.576 237.663 222.162 237.624 218.745L232.624 218.802ZM232.409 239.053C232.301 242.437 232.159 245.811 231.986 249.171L236.979 249.429C237.154 246.037 237.297 242.63 237.406 239.212L232.409 239.053ZM231.369 259.288C231.132 262.678 230.865 266.05 230.572 269.401L235.553 269.836C235.849 266.458 236.118 263.057 236.357 259.638L231.369 259.288ZM229.606 279.501C229.254 282.891 228.878 286.254 228.481 289.586L233.446 290.178C233.846 286.822 234.225 283.433 234.579 280.017L229.606 279.501ZM227.209 299.656C226.985 301.331 226.757 302.997 226.524 304.653L231.476 305.347C231.71 303.681 231.939 302.004 232.165 300.318L227.209 299.656ZM226.524 304.653C226.289 306.33 226.045 307.988 225.793 309.627L230.734 310.388C230.99 308.726 231.237 307.047 231.476 305.347L226.524 304.653ZM224.179 319.235C223.579 322.526 222.943 325.736 222.273 328.869L227.163 329.914C227.843 326.731 228.489 323.472 229.098 320.132L224.179 319.235ZM220.109 338.254C219.299 341.522 218.45 344.702 217.564 347.797L222.371 349.174C223.274 346.02 224.138 342.782 224.963 339.457L220.109 338.254ZM214.712 357.089C213.683 360.223 212.614 363.266 211.508 366.222L216.191 367.975C217.321 364.953 218.413 361.846 219.463 358.648L214.712 357.089ZM207.872 375.326C206.576 378.373 205.237 381.324 203.86 384.186L208.366 386.354C209.777 383.422 211.147 380.401 212.473 377.284L207.872 375.326ZM199.454 392.814C197.887 395.709 196.279 398.51 194.633 401.227L198.91 403.818C200.597 401.033 202.245 398.161 203.851 395.194L199.454 392.814ZM189.378 409.445C187.538 412.174 185.66 414.818 183.748 417.388L187.759 420.373C189.716 417.743 191.639 415.036 193.524 412.239L189.378 409.445ZM177.766 425.068C175.697 427.61 173.597 430.084 171.469 432.502L175.223 435.805C177.389 433.343 179.532 430.82 181.645 428.224L177.766 425.068ZM164.9 439.719C162.658 442.107 160.394 444.448 158.112 446.758L161.67 450.272C163.976 447.937 166.27 445.565 168.545 443.142L164.9 439.719ZM151.161 453.667C148.818 455.961 146.465 458.235 144.107 460.505L147.575 464.107C149.936 461.833 152.301 459.548 154.659 457.241L151.161 453.667ZM137.01 467.335C134.646 469.615 132.285 471.906 129.933 474.221L133.441 477.784C135.776 475.486 138.124 473.207 140.481 470.933L137.01 467.335ZM122.945 481.224C120.648 483.573 118.367 485.96 116.108 488.4L119.777 491.797C122.001 489.395 124.25 487.041 126.52 484.72L122.945 481.224ZM109.488 495.796C107.343 498.279 105.227 500.825 103.144 503.446L107.058 506.557C109.096 503.993 111.169 501.5 113.272 499.064L109.488 495.796ZM97.1292 511.372C95.2104 514.025 93.3282 516.758 91.488 519.581L95.6768 522.311C97.4712 519.558 99.3075 516.892 101.181 514.302L97.1292 511.372ZM86.2496 528.074C84.5992 530.907 82.991 533.829 81.4292 536.849L85.8706 539.146C87.3934 536.201 88.9611 533.352 90.5698 530.591L86.2496 528.074ZM77.0878 545.775C75.7415 548.723 74.438 551.761 73.1804 554.895L77.8208 556.757C79.0494 553.695 80.3222 550.729 81.636 547.852L77.0878 545.775ZM69.6759 564.232C68.596 567.313 67.5585 570.484 66.5658 573.748L71.3494 575.203C72.3222 572.004 73.3381 568.9 74.3946 565.885L69.6759 564.232ZM63.8844 583.218C63.0575 586.363 62.2699 589.591 61.5235 592.906L66.4014 594.004C67.135 590.746 67.9085 587.576 68.7201 584.489L63.8844 583.218ZM59.5029 602.628C58.8986 605.791 58.3297 609.028 57.7978 612.344L62.7347 613.136C63.2589 609.868 63.8192 606.68 64.4141 603.567L59.5029 602.628ZM56.3492 622.264C55.9307 625.432 55.5442 628.667 55.1907 631.972L60.1624 632.504C60.5116 629.239 60.8932 626.045 61.3061 622.919L56.3492 622.264ZM54.2401 641.983C53.9756 645.158 53.74 648.394 53.5341 651.694L58.5244 652.005C58.7282 648.739 58.9613 645.538 59.2229 642.398L54.2401 641.983ZM53.0103 661.704C52.8742 664.901 52.7648 668.154 52.6827 671.466L57.6812 671.59C57.7625 668.307 57.871 665.083 58.0058 661.917L53.0103 661.704ZM52.5205 681.403C52.5069 683.088 52.5 684.787 52.5 686.501H57.5C57.5 684.8 57.5068 683.114 57.5203 681.443L52.5205 681.403ZM52.5 686.501C52.5 688.214 52.5092 689.914 52.5275 691.602L57.5272 691.548C57.5091 689.878 57.5 688.196 57.5 686.501H52.5ZM52.7448 701.578C52.8529 704.854 52.9963 708.08 53.174 711.259L58.1662 710.979C57.9906 707.84 57.8489 704.651 57.7421 701.413L52.7448 701.578ZM53.8622 721.309C54.1322 724.629 54.4409 727.894 54.7871 731.106L59.7583 730.57C59.4168 727.402 59.1122 724.181 58.8458 720.904L53.8622 721.309ZM55.9848 740.934C56.4396 744.271 56.9364 747.549 57.4736 750.77L62.4055 749.947C61.8765 746.776 61.3872 743.548 60.939 740.258L55.9848 740.934ZM59.2392 760.43C59.9011 763.754 60.6077 767.014 61.357 770.212L66.2252 769.072C65.4888 765.929 64.7941 762.723 64.143 759.453L59.2392 760.43ZM63.7587 779.724C64.6468 782.999 65.5813 786.206 66.5599 789.348L71.3337 787.861C70.3737 784.779 69.4565 781.631 68.5844 778.415L63.7587 779.724ZM69.6638 798.689C70.7914 801.878 71.9657 804.997 73.1841 808.048L77.8276 806.194C76.634 803.204 75.4831 800.148 74.3777 797.022L69.6638 798.689ZM77.0387 817.162C78.4104 820.23 79.8277 823.227 81.2873 826.157L85.7628 823.928C84.334 821.059 82.9463 818.125 81.6031 815.121L77.0387 817.162ZM85.908 834.966C87.5182 837.885 89.1708 840.735 90.8622 843.521L95.1361 840.926C93.4801 838.198 91.8623 835.408 90.2861 832.551L85.908 834.966ZM96.2217 851.948C98.0679 854.724 99.9523 857.433 101.87 860.082L105.92 857.149C104.04 854.553 102.193 851.898 100.385 849.179L96.2217 851.948ZM107.852 868.016C109.912 870.643 112.004 873.211 114.123 875.723L117.945 872.499C115.863 870.03 113.809 867.509 111.787 864.931L107.852 868.016ZM120.625 883.174C122.855 885.649 125.109 888.071 127.381 890.446L130.994 886.99C128.754 884.648 126.534 882.262 124.339 879.827L120.625 883.174ZM134.321 897.512C136.67 899.844 139.033 902.134 141.404 904.388L144.849 900.765C142.501 898.533 140.165 896.268 137.844 893.964L134.321 897.512ZM148.632 911.138C151.069 913.377 153.51 915.585 155.948 917.77L159.284 914.046C156.859 911.872 154.434 909.678 152.014 907.456L148.632 911.138ZM163.305 924.308C165.777 926.491 168.242 928.657 170.691 930.812L173.993 927.058C171.542 924.901 169.082 922.739 166.615 920.56L163.305 924.308ZM178.067 937.321C180.527 939.503 182.964 941.68 185.375 943.861L188.73 940.154C186.304 937.958 183.853 935.769 181.385 933.58L178.067 937.321ZM192.573 950.478C194.97 952.721 197.331 954.975 199.65 957.248L203.151 953.678C200.8 951.373 198.41 949.092 195.989 946.827L192.573 950.478ZM206.52 964.183C208.776 966.533 210.982 968.912 213.131 971.327L216.866 968.003C214.671 965.537 212.423 963.112 210.127 960.721L206.52 964.183ZM219.434 978.727C221.476 981.24 223.455 983.799 225.362 986.41L229.4 983.461C227.439 980.776 225.407 978.149 223.314 975.574L219.434 978.727ZM230.847 994.386C232.59 997.086 234.256 999.847 235.841 1002.68L240.204 1000.23C238.566 997.309 236.845 994.459 235.048 991.674L230.847 994.386ZM240.29 1011.27C241.654 1014.14 242.937 1017.08 244.132 1020.1L248.781 1018.26C247.544 1015.13 246.216 1012.09 244.804 1009.12L240.29 1011.27ZM247.381 1029.19C248.354 1032.23 249.241 1035.35 250.038 1038.56L254.89 1037.36C254.067 1034.04 253.15 1030.81 252.143 1027.67L247.381 1029.19ZM252.056 1047.93C252.628 1051.04 253.119 1054.23 253.525 1057.51L258.487 1056.9C258.069 1053.52 257.564 1050.23 256.974 1047.02L252.056 1047.93ZM254.454 1067.2C254.67 1070.33 254.813 1073.53 254.878 1076.81L259.877 1076.71C259.81 1073.35 259.664 1070.07 259.442 1066.86L254.454 1067.2ZM254.847 1086.69C254.767 1089.8 254.621 1092.98 254.407 1096.23L259.397 1096.56C259.615 1093.24 259.763 1090 259.845 1086.82L254.847 1086.69ZM253.565 1106.14C253.245 1109.23 252.866 1112.38 252.427 1115.6L257.38 1116.28C257.827 1113.01 258.212 1109.8 258.538 1106.66L253.565 1106.14ZM250.928 1125.42C250.408 1128.51 249.836 1131.65 249.209 1134.85L254.116 1135.81C254.751 1132.57 255.332 1129.38 255.859 1126.25L250.928 1125.42ZM247.195 1144.49C246.832 1146.12 246.456 1147.77 246.066 1149.43L250.934 1150.57C251.328 1148.89 251.709 1147.22 252.076 1145.57L247.195 1144.49ZM246.066 1149.43C245.69 1151.03 245.293 1152.62 244.876 1154.18L249.707 1155.47C250.137 1153.86 250.546 1152.22 250.934 1150.57L246.066 1149.43ZM242.117 1163.4C241.088 1166.5 239.976 1169.52 238.786 1172.47L243.422 1174.34C244.651 1171.29 245.799 1168.18 246.861 1164.98L242.117 1163.4ZM234.883 1181.32C233.482 1184.24 232 1187.1 230.443 1189.89L234.81 1192.33C236.416 1189.45 237.946 1186.5 239.393 1183.48L234.883 1181.32ZM225.49 1198.18C223.752 1200.91 221.94 1203.57 220.06 1206.19L224.118 1209.11C226.05 1206.42 227.915 1203.68 229.705 1200.87L225.49 1198.18ZM214.198 1213.9C212.18 1216.42 210.099 1218.89 207.959 1221.33L211.714 1224.63C213.902 1222.14 216.032 1219.61 218.101 1217.02L214.198 1213.9ZM201.398 1228.48C199.17 1230.82 196.889 1233.12 194.562 1235.4L198.059 1238.98C200.424 1236.66 202.745 1234.32 205.016 1231.93L201.398 1228.48ZM187.495 1242.11C185.116 1244.31 182.697 1246.49 180.241 1248.65L183.547 1252.4C186.028 1250.22 188.477 1248.01 190.888 1245.79L187.495 1242.11ZM172.847 1255.05C170.377 1257.14 167.879 1259.23 165.355 1261.32L168.543 1265.18C171.08 1263.08 173.596 1260.97 176.084 1258.86L172.847 1255.05ZM157.783 1267.54C155.26 1269.59 152.717 1271.65 150.159 1273.71L153.302 1277.6C155.862 1275.53 158.409 1273.47 160.939 1271.41L157.783 1267.54ZM142.513 1279.89C139.981 1281.94 137.439 1284 134.891 1286.09L138.054 1289.96C140.594 1287.88 143.129 1285.83 145.658 1283.78L142.513 1279.89ZM127.301 1292.34C124.789 1294.42 122.274 1296.53 119.762 1298.67L123.004 1302.48C125.498 1300.36 127.997 1298.26 130.497 1296.18L127.301 1292.34ZM112.296 1305.13C109.841 1307.29 107.392 1309.47 104.953 1311.7L108.322 1315.39C110.737 1313.19 113.163 1311.02 115.596 1308.88L112.296 1305.13ZM97.7369 1318.42C95.3646 1320.68 93.0053 1322.98 90.663 1325.33L94.1989 1328.86C96.5108 1326.55 98.8409 1324.28 101.186 1322.04L97.7369 1318.42ZM83.7573 1332.42C81.5091 1334.79 79.2803 1337.21 77.0745 1339.68L80.8027 1343.01C82.9749 1340.58 85.1708 1338.2 87.3871 1335.86L83.7573 1332.42ZM70.5979 1347.15C68.4861 1349.67 66.3995 1352.24 64.3413 1354.86L68.2746 1357.95C70.298 1355.37 72.3501 1352.84 74.4278 1350.37L70.5979 1347.15ZM58.377 1362.73C56.4465 1365.37 54.5454 1368.06 52.6766 1370.82L56.8132 1373.62C58.6486 1370.92 60.516 1368.27 62.4128 1365.68L58.377 1362.73ZM47.2369 1379.14C45.5053 1381.9 43.8062 1384.71 42.1421 1387.59L46.469 1390.09C48.1029 1387.27 49.7711 1384.51 51.4713 1381.8L47.2369 1379.14ZM37.3349 1396.25C35.7945 1399.14 34.2892 1402.09 32.8213 1405.11L37.3166 1407.3C38.7583 1404.34 40.2365 1401.44 41.749 1398.59L37.3349 1396.25ZM28.6671 1414.03C27.3359 1417.03 26.0409 1420.08 24.7841 1423.19L29.4205 1425.07C30.6558 1422.01 31.9283 1419.01 33.2361 1416.06L28.6671 1414.03ZM21.2477 1432.39C20.1284 1435.46 19.0451 1438.57 17.9994 1441.75L22.7486 1443.31C23.7775 1440.19 24.8431 1437.12 25.9438 1434.11L21.2477 1432.39ZM15.051 1451.2C14.1328 1454.32 13.2497 1457.48 12.4031 1460.7L17.2389 1461.97C18.0729 1458.8 18.9427 1455.68 19.8467 1452.62L15.051 1451.2ZM10.0194 1470.34C9.28736 1473.49 8.58924 1476.69 7.92617 1479.95L12.8255 1480.95C13.4796 1477.74 14.1681 1474.58 14.8897 1471.47L10.0194 1470.34ZM6.07356 1489.7C5.5111 1492.89 4.98121 1496.12 4.4849 1499.4L9.42875 1500.15C9.91898 1496.91 10.4422 1493.71 10.9974 1490.57L6.07356 1489.7ZM3.12303 1509.2C2.9125 1510.86 2.71026 1512.53 2.51644 1514.21L7.48358 1514.79C7.6752 1513.12 7.87511 1511.47 8.08319 1509.83L3.12303 1509.2ZM2.51644 1514.21C2.31547 1515.96 2.13293 1517.69 1.96859 1519.4L6.94565 1519.87C7.10694 1518.2 7.28616 1516.5 7.48358 1514.79L2.51644 1514.21ZM1.19861 1529.45C1.00804 1532.83 0.892207 1536.14 0.848853 1539.38L5.84841 1539.45C5.89078 1536.28 6.00403 1533.04 6.19068 1529.73L1.19861 1529.45ZM0.955361 1549.55C1.07463 1552.94 1.27786 1556.26 1.56212 1559.5L6.54299 1559.06C6.26655 1555.91 6.06855 1552.68 5.95228 1549.37L0.955361 1549.55ZM2.74048 1569.58C3.23833 1572.97 3.83012 1576.27 4.51187 1579.48L9.40316 1578.45C8.74357 1575.34 8.1702 1572.14 7.68731 1568.85L2.74048 1569.58ZM6.93358 1589.27C7.87484 1592.59 8.91752 1595.81 10.0564 1598.94L14.7548 1597.23C13.6575 1594.21 12.6519 1591.11 11.7433 1587.91L6.93358 1589.27ZM13.8401 1608.24C15.2519 1611.38 16.7654 1614.41 18.3743 1617.36L22.7619 1614.96C21.2138 1612.12 19.7572 1609.2 18.3985 1606.19L13.8401 1608.24ZM23.5593 1626.04C25.4041 1628.89 27.3419 1631.64 29.3653 1634.3L33.349 1631.28C31.3972 1628.71 29.5298 1626.06 27.7532 1623.32L23.5593 1626.04ZM35.765 1642.15C37.9825 1644.69 40.2799 1647.15 42.6496 1649.53L46.1968 1646.01C43.8986 1643.7 41.674 1641.32 39.5297 1638.86L35.765 1642.15ZM49.9699 1656.48C52.4632 1658.72 55.0205 1660.89 57.6341 1663L60.7779 1659.11C58.2261 1657.05 55.7339 1654.94 53.3079 1652.76L49.9699 1656.48ZM65.5913 1669.14C68.2812 1671.13 71.0195 1673.06 73.7989 1674.95L76.6124 1670.82C73.8809 1668.96 71.1945 1667.06 68.5594 1665.12L65.5913 1669.14ZM82.1635 1680.45C84.9721 1682.24 87.8142 1683.99 90.6828 1685.71L93.2557 1681.42C90.4196 1679.72 87.6141 1677.99 84.8454 1676.23L82.1635 1680.45ZM99.3199 1690.77C102.198 1692.42 105.097 1694.05 108.008 1695.66L110.431 1691.29C107.537 1689.68 104.66 1688.07 101.807 1686.43L99.3199 1690.77ZM116.758 1700.45C119.677 1702.03 122.602 1703.6 125.528 1705.17L127.89 1700.76C124.966 1699.19 122.048 1697.63 119.14 1696.05L116.758 1700.45ZM134.297 1709.86C137.219 1711.43 140.136 1713 143.041 1714.58L145.428 1710.19C142.512 1708.6 139.587 1707.03 136.66 1705.46L134.297 1709.86ZM151.735 1719.36C154.631 1720.97 157.509 1722.6 160.363 1724.24L162.863 1719.91C159.982 1718.25 157.082 1716.61 154.167 1714.99L151.735 1719.36ZM168.876 1729.27C171.705 1730.98 174.504 1732.72 177.265 1734.5L179.967 1730.29C177.165 1728.49 174.328 1726.73 171.465 1724.99L168.876 1729.27ZM185.486 1739.96C188.197 1741.83 190.863 1743.74 193.477 1745.69L196.472 1741.69C193.802 1739.69 191.083 1737.74 188.323 1735.84L185.486 1739.96ZM201.224 1751.76C203.762 1753.84 206.239 1755.98 208.649 1758.17L212.017 1754.48C209.54 1752.22 206.997 1750.03 204.397 1747.89L201.224 1751.76ZM215.691 1764.97C217.969 1767.31 220.173 1769.71 222.297 1772.19L226.093 1768.93C223.896 1766.37 221.619 1763.89 219.269 1761.48L215.691 1764.97ZM228.386 1779.81C230.319 1782.41 232.168 1785.09 233.925 1787.85L238.146 1785.17C236.321 1782.3 234.403 1779.52 232.399 1776.82L228.386 1779.81ZM238.831 1796.26C240.339 1799.09 241.757 1802 243.08 1805L247.656 1802.99C246.282 1799.87 244.809 1796.84 243.242 1793.91L238.831 1796.26ZM246.702 1814.15C247.758 1817.13 248.725 1820.2 249.598 1823.36L254.417 1822.03C253.513 1818.76 252.511 1815.58 251.416 1812.48L246.702 1814.15ZM251.885 1832.89C252.525 1836.01 253.08 1839.22 253.545 1842.52L258.496 1841.82C258.017 1838.42 257.444 1835.11 256.783 1831.89L251.885 1832.89ZM254.629 1852.22C254.896 1855.42 255.083 1858.7 255.187 1862.05L260.184 1861.9C260.078 1858.46 259.886 1855.09 259.612 1851.81L254.629 1852.22ZM255.255 1871.82C255.203 1875.03 255.08 1878.31 254.882 1881.66L259.873 1881.96C260.075 1878.54 260.202 1875.18 260.255 1871.9L255.255 1871.82ZM254.107 1891.49C253.796 1894.66 253.422 1897.9 252.982 1901.19L257.938 1901.86C258.385 1898.5 258.766 1895.21 259.083 1891.98L254.107 1891.49ZM251.484 1911.17C250.969 1914.27 250.398 1917.42 249.771 1920.63L254.678 1921.59C255.314 1918.34 255.893 1915.14 256.416 1911.99L251.484 1911.17ZM247.721 1930.41C247.351 1932.07 246.966 1933.74 246.567 1935.42L251.433 1936.58C251.837 1934.87 252.226 1933.18 252.601 1931.5L247.721 1930.41ZM246.631 1935.2C246.074 1936.86 245.515 1938.48 244.953 1940.08L249.669 1941.74C250.239 1940.12 250.806 1938.47 251.369 1936.8L246.631 1935.2ZM241.531 1949.39C240.286 1952.63 239.029 1955.76 237.761 1958.76L242.369 1960.71C243.658 1957.65 244.935 1954.48 246.199 1951.18L241.531 1949.39ZM233.695 1967.95C232.242 1971.08 230.778 1974.07 229.303 1976.93L233.748 1979.22C235.255 1976.3 236.749 1973.25 238.229 1970.06L233.695 1967.95ZM224.541 1985.7C222.827 1988.69 221.102 1991.52 219.369 1994.22L223.576 1996.92C225.355 1994.15 227.123 1991.24 228.878 1988.18L224.541 1985.7ZM213.758 2002.46C211.742 2005.25 209.719 2007.87 207.693 2010.36L211.568 2013.52C213.654 2010.96 215.737 2008.26 217.811 2005.39L213.758 2002.46ZM201.18 2017.88C198.867 2020.39 196.555 2022.75 194.25 2024.99L197.733 2028.58C200.1 2026.28 202.479 2023.85 204.86 2021.26L201.18 2017.88ZM186.905 2031.77C184.341 2034.03 181.793 2036.18 179.267 2038.27L182.448 2042.12C185.002 2040.02 187.594 2037.83 190.211 2035.53L186.905 2031.77ZM171.45 2044.62C168.794 2046.76 166.166 2048.89 163.593 2051.05L166.806 2054.88C169.34 2052.75 171.935 2050.65 174.592 2048.51L171.45 2044.62ZM155.909 2057.79C153.414 2060.11 150.982 2062.52 148.63 2065.08L152.313 2068.46C154.561 2066.02 156.897 2063.7 159.311 2061.46L155.909 2057.79ZM142.02 2073.03C140.008 2075.71 138.08 2078.56 136.246 2081.63L140.539 2084.2C142.281 2081.28 144.111 2078.57 146.02 2076.03L142.02 2073.03ZM131.389 2090.79C129.994 2093.76 128.674 2096.91 127.436 2100.27L132.128 2102C133.318 2098.77 134.583 2095.75 135.914 2092.91L131.389 2090.79ZM124.248 2110.03C123.342 2113.17 122.495 2116.47 121.712 2119.95L126.59 2121.05C127.353 2117.66 128.175 2114.45 129.052 2111.41L124.248 2110.03ZM119.719 2129.98C119.156 2133.21 118.64 2136.58 118.172 2140.09L123.129 2140.75C123.588 2137.3 124.094 2134 124.645 2130.84L119.719 2129.98ZM116.995 2150.31C116.676 2153.54 116.394 2156.88 116.15 2160.34L121.137 2160.7C121.379 2157.28 121.657 2153.98 121.971 2150.8L116.995 2150.31ZM115.561 2170.45C115.406 2173.77 115.282 2177.19 115.191 2180.71L120.189 2180.84C120.28 2177.35 120.402 2173.96 120.555 2170.68L115.561 2170.45ZM115.021 2190.76C115.007 2192.49 115 2194.23 115 2196H120C120 2194.24 120.007 2192.51 120.021 2190.81L115.021 2190.76Z" fill="#30674E"/>
</svg>
